<svg width="536" height="491" viewBox="0 0 536 491" fill="none" xmlns="http://www.w3.org/2000/svg">
<rect width="536" height="491" rx="50" fill="url(#paint0_radial)"/>
<rect width="42.9101" height="42.6456" rx="21.3228" transform="matrix(0.788402 0.615161 -0.663124 0.74851 153.279 417.339)" fill="#BEBEBE"/>
<rect width="43.2395" height="256.55" transform="matrix(0.810239 0.5861 -0.634691 0.772766 300.483 236.654)" fill="#797777"/>
<path d="M476.387 215.329C452.951 263.163 390.696 282.65 336.871 257.629C283.047 232.608 259.44 173.208 282.876 125.373C306.311 77.5391 368.567 58.0528 422.391 83.0738C476.216 108.095 499.823 167.495 476.387 215.329Z" fill="url(#paint1_radial)" stroke="#ADADAD" stroke-width="10"/>
<path d="M473.986 215.868C451.061 262.66 390.015 281.299 337.381 256.832C284.747 232.364 261.225 174.413 284.15 127.621C307.075 80.8291 368.121 62.1902 420.755 86.6577C473.389 111.125 496.911 169.076 473.986 215.868Z" stroke="#555555" stroke-width="5"/>
<path d="M38.7523 194.168C37.2963 194.168 35.8963 193.935 34.5523 193.468C33.2269 193.001 32.2003 192.385 31.4723 191.62L32.2843 190.024C32.9936 190.733 33.9363 191.312 35.1123 191.76C36.2883 192.189 37.5016 192.404 38.7523 192.404C40.5069 192.404 41.8229 192.087 42.7003 191.452C43.5776 190.799 44.0163 189.959 44.0163 188.932C44.0163 188.148 43.7736 187.523 43.2883 187.056C42.8216 186.589 42.2429 186.235 41.5523 185.992C40.8616 185.731 39.9003 185.451 38.6683 185.152C37.1936 184.779 36.0176 184.424 35.1403 184.088C34.2629 183.733 33.5069 183.201 32.8723 182.492C32.2563 181.783 31.9483 180.821 31.9483 179.608C31.9483 178.619 32.2096 177.723 32.7323 176.92C33.2549 176.099 34.0576 175.445 35.1403 174.96C36.2229 174.475 37.5669 174.232 39.1723 174.232C40.2923 174.232 41.3843 174.391 42.4483 174.708C43.5309 175.007 44.4643 175.427 45.2483 175.968L44.5482 177.62C43.7269 177.079 42.8496 176.677 41.9163 176.416C40.9829 176.136 40.0683 175.996 39.1723 175.996C37.4549 175.996 36.1576 176.332 35.2803 177.004C34.4216 177.657 33.9923 178.507 33.9923 179.552C33.9923 180.336 34.2256 180.971 34.6923 181.456C35.1776 181.923 35.7749 182.287 36.4843 182.548C37.2123 182.791 38.1829 183.061 39.3963 183.36C40.8336 183.715 41.9909 184.069 42.8683 184.424C43.7643 184.76 44.5203 185.283 45.1363 185.992C45.7523 186.683 46.0603 187.625 46.0603 188.82C46.0603 189.809 45.7896 190.715 45.2483 191.536C44.7256 192.339 43.9136 192.983 42.8123 193.468C41.7109 193.935 40.3576 194.168 38.7523 194.168ZM64.4348 192.208V194H50.5748V174.4H64.0148V176.192H52.6468V183.164H62.7828V184.928H52.6468V192.208H64.4348ZM81.5973 188.764H70.6773L68.3253 194H66.1693L75.1293 174.4H77.1733L86.1333 194H83.9493L81.5973 188.764ZM80.8413 187.084L76.1373 176.556L71.4333 187.084H80.8413ZM102.76 194L98.2796 187.7C97.7756 187.756 97.2529 187.784 96.7116 187.784H91.4476V194H89.3756V174.4H96.7116C99.2129 174.4 101.173 174.997 102.592 176.192C104.01 177.387 104.72 179.029 104.72 181.12C104.72 182.651 104.328 183.948 103.544 185.012C102.778 186.057 101.677 186.813 100.24 187.28L105.028 194H102.76ZM96.6556 186.02C98.5969 186.02 100.081 185.591 101.108 184.732C102.134 183.873 102.648 182.669 102.648 181.12C102.648 179.533 102.134 178.32 101.108 177.48C100.081 176.621 98.5969 176.192 96.6556 176.192H91.4476V186.02H96.6556ZM118.122 194.168C116.181 194.168 114.426 193.739 112.858 192.88C111.309 192.021 110.086 190.836 109.19 189.324C108.313 187.793 107.874 186.085 107.874 184.2C107.874 182.315 108.313 180.616 109.19 179.104C110.086 177.573 111.318 176.379 112.886 175.52C114.454 174.661 116.209 174.232 118.15 174.232C119.606 174.232 120.95 174.475 122.182 174.96C123.414 175.445 124.459 176.155 125.318 177.088L124.002 178.404C122.471 176.855 120.539 176.08 118.206 176.08C116.657 176.08 115.247 176.435 113.978 177.144C112.709 177.853 111.71 178.824 110.982 180.056C110.273 181.288 109.918 182.669 109.918 184.2C109.918 185.731 110.273 187.112 110.982 188.344C111.71 189.576 112.709 190.547 113.978 191.256C115.247 191.965 116.657 192.32 118.206 192.32C120.558 192.32 122.49 191.536 124.002 189.968L125.318 191.284C124.459 192.217 123.405 192.936 122.154 193.44C120.922 193.925 119.578 194.168 118.122 194.168ZM146.115 174.4V194H144.071V184.956H131.807V194H129.735V174.4H131.807V183.136H144.071V174.4H146.115ZM161.912 176.192V183.892H172.048V185.684H161.912V194H159.84V174.4H173.28V176.192H161.912ZM185.881 194.168C183.94 194.168 182.176 193.739 180.589 192.88C179.021 192.003 177.789 190.808 176.893 189.296C176.016 187.784 175.577 186.085 175.577 184.2C175.577 182.315 176.016 180.616 176.893 179.104C177.789 177.592 179.021 176.407 180.589 175.548C182.176 174.671 183.94 174.232 185.881 174.232C187.822 174.232 189.568 174.661 191.117 175.52C192.685 176.379 193.917 177.573 194.813 179.104C195.709 180.616 196.157 182.315 196.157 184.2C196.157 186.085 195.709 187.793 194.813 189.324C193.917 190.836 192.685 192.021 191.117 192.88C189.568 193.739 187.822 194.168 185.881 194.168ZM185.881 192.32C187.43 192.32 188.83 191.975 190.081 191.284C191.332 190.575 192.312 189.604 193.021 188.372C193.73 187.121 194.085 185.731 194.085 184.2C194.085 182.669 193.73 181.288 193.021 180.056C192.312 178.805 191.332 177.835 190.081 177.144C188.83 176.435 187.43 176.08 185.881 176.08C184.332 176.08 182.922 176.435 181.653 177.144C180.402 177.835 179.413 178.805 178.685 180.056C177.976 181.288 177.621 182.669 177.621 184.2C177.621 185.731 177.976 187.121 178.685 188.372C179.413 189.604 180.402 190.575 181.653 191.284C182.922 191.975 184.332 192.32 185.881 192.32ZM214.185 194L209.705 187.7C209.201 187.756 208.679 187.784 208.137 187.784H202.873V194H200.801V174.4H208.137C210.639 174.4 212.599 174.997 214.017 176.192C215.436 177.387 216.145 179.029 216.145 181.12C216.145 182.651 215.753 183.948 214.969 185.012C214.204 186.057 213.103 186.813 211.665 187.28L216.453 194H214.185ZM208.081 186.02C210.023 186.02 211.507 185.591 212.533 184.732C213.56 183.873 214.073 182.669 214.073 181.12C214.073 179.533 213.56 178.32 212.533 177.48C211.507 176.621 210.023 176.192 208.081 176.192H202.873V186.02H208.081ZM66.7086 222.764H55.7886L53.4366 228H51.2806L60.2406 208.4H62.2846L71.2446 228H69.0606L66.7086 222.764ZM65.9526 221.084L61.2486 210.556L56.5446 221.084H65.9526ZM90.8669 208.4V228H89.1589L76.5589 212.096V228H74.4869V208.4H76.1949L88.8229 224.304V208.4H90.8669ZM104.592 208.4H106.664V228H104.592V208.4ZM133.398 208.4V228H131.41V212.32L123.71 225.508H122.73L115.03 212.404V228H113.042V208.4H114.75L123.262 222.932L131.69 208.4H133.398ZM152.076 222.764H141.156L138.804 228H136.648L145.608 208.4H147.652L156.612 228H154.428L152.076 222.764ZM151.32 221.084L146.616 210.556L141.912 221.084H151.32ZM173.385 218.2H175.373V225.676C174.458 226.479 173.375 227.095 172.125 227.524C170.874 227.953 169.558 228.168 168.177 228.168C166.217 228.168 164.453 227.739 162.885 226.88C161.317 226.021 160.085 224.836 159.189 223.324C158.293 221.793 157.845 220.085 157.845 218.2C157.845 216.315 158.293 214.616 159.189 213.104C160.085 211.573 161.317 210.379 162.885 209.52C164.453 208.661 166.226 208.232 168.205 208.232C169.698 208.232 171.07 208.475 172.321 208.96C173.571 209.427 174.626 210.127 175.485 211.06L174.197 212.376C172.647 210.845 170.678 210.08 168.289 210.08C166.702 210.08 165.265 210.435 163.977 211.144C162.707 211.835 161.709 212.805 160.981 214.056C160.253 215.288 159.889 216.669 159.889 218.2C159.889 219.731 160.253 221.112 160.981 222.344C161.709 223.576 162.707 224.547 163.977 225.256C165.246 225.965 166.674 226.32 168.261 226.32C170.277 226.32 171.985 225.816 173.385 224.808V218.2ZM195.097 226.208V228H181.237V208.4H194.677V210.192H183.309V217.164H193.445V218.928H183.309V226.208H195.097Z" fill="#555555"/>
<defs>
<radialGradient id="paint0_radial" cx="0" cy="0" r="1" gradientUnits="userSpaceOnUse" gradientTransform="translate(598 -64) rotate(138.113) scale(976.541 1066.04)">
<stop stop-color="#E2E2E2"/>
<stop offset="1" stop-color="#E2E2E2" stop-opacity="0"/>
</radialGradient>
<radialGradient id="paint1_radial" cx="0" cy="0" r="1" gradientUnits="userSpaceOnUse" gradientTransform="translate(379.631 170.351) rotate(116.102) scale(102.189 111.676)">
<stop stop-color="#ECECEC"/>
<stop offset="1" stop-color="#C4C4C4" stop-opacity="0"/>
</radialGradient>
</defs>
</svg>
